<svg xmlns="http://www.w3.org/2000/svg" width="32" height="32" id="kitchen"><path fill="#373449" d="M10.504 2.975v.004a.5.5 0 0 0-.05 0s-.343.03-.694.226a1.495 1.495 0 0 0-.756 1.287c0 .64.405 1.09.756 1.287.123.07.137.046.244.08v4.12H9.53a5.522 5.522 0 0 0-5.523 5.523v4.477h-.01v4h.01v1.5a.5.5 0 0 0 .5.5h4.467v1.507a.5.5 0 0 0 .5.5h2.013a.5.5 0 0 0 .5-.5V25.98h6.98v1.517a.5.5 0 0 0 .5.5h2.01a.5.5 0 0 0 .5-.5V25.98h4.477a.5.5 0 0 0 .5-.5v-1.5h.004v-4h-.004V17.98h1.527a.5.5 0 0 0 .5-.5v-1.998a.5.5 0 0 0-.5-.5H26.93c-.248-2.788-2.425-5.003-5.301-5.003h-.625v-4.09c.101-.025.109-.002.223-.055.374-.186.777-.664.777-1.344s-.403-1.16-.777-1.345c-.375-.186-.735-.17-.735-.17h-9.988zm.045 1.002v.002h9.955a.5.5 0 0 0 .012 0s.14-.002.265.064c.126.062.223.09.223.45 0 .357-.097.386-.223.448s-.265.067-.265.067a.5.5 0 0 0-.512.5v4.469h-9v-4.47a.5.5 0 0 0-.45-.497s-.157-.02-.306-.104c-.149-.083-.244-.14-.244-.414 0-.274.095-.33.244-.414.146-.082.295-.1.3-.101zM9.53 10.979H21.63c2.515 0 4.32 1.985 4.326 4.525v4.475H5.008v-4.477a4.502 4.502 0 0 1 4.523-4.523zm17.483 5.003h.968v.998h-.968v-.998zM5.008 20.98h20.947v2H5.008v-2zm0 3h20.947v1H5.008v-1zm4.967 2.019h1.013v.988H9.975v-.988zm9.994 0h1.01v.998h-1.01v-.998z" color="#000" font-family="sans-serif" font-weight="400" overflow="visible" style="line-height:normal;text-indent:0;text-align:start;text-decoration-line:none;text-decoration-style:solid;text-decoration-color:#000;text-transform:none;block-progression:tb;white-space:normal;isolation:auto;mix-blend-mode:normal;solid-color:#000;solid-opacity:1"></path></svg>
