<svg xmlns="http://www.w3.org/2000/svg" data-name="Layer 1" viewBox="0 0 512 512" id="thali-for-rakshabandhan"><path d="M189.627 206.06a7.5 7.5 0 1 0-10.607 0 7.5 7.5 0 0 0 10.607 0ZM102.565 362.46a7.5 7.5 0 1 0 7.5 7.5 7.5 7.5 0 0 0-7.5-7.5Zm304-208a7.5 7.5 0 1 0-7.5-7.5 7.5 7.5 0 0 0 7.5 7.5Zm-344 97a7.5 7.5 0 1 0 7.5 7.5 7.5 7.5 0 0 0-7.5-7.5Zm253-167a7.5 7.5 0 1 0-7.5-7.5 7.5 7.5 0 0 0 7.5 7.5ZM211.351 265.713a31.475 31.475 0 0 0 38.261-38.044 31.328 31.328 0 0 0-.002-53.834 31.607 31.607 0 0 0-2.758-22.257c7.41-4.059 12.838-9.315 16.176-15.713a35.94 35.94 0 0 0 2.778-7.308 22.158 22.158 0 0 1 1.67-4.543c2.776-5.376 8.365-9.635 16.61-12.658a7.5 7.5 0 1 0-5.164-14.083c-11.884 4.357-20.219 11.038-24.775 19.858a36.573 36.573 0 0 0-2.766 7.313 21.582 21.582 0 0 1-1.653 4.484c-2.36 4.522-6.858 8.25-13.385 11.122a31.659 31.659 0 0 0-24.998-4.252 31.598 31.598 0 0 0-54.046.008 31.87 31.87 0 0 0-29.95 8.237 31.537 31.537 0 0 0-8.313 29.795 31.332 31.332 0 0 0 0 53.834 31.604 31.604 0 0 0 5.061 25.96c-2.885 6.664-6.651 11.247-11.232 13.637a21.59 21.59 0 0 1-4.485 1.653 36.563 36.563 0 0 0-7.312 2.766c-8.82 4.555-15.5 12.89-19.858 24.775a7.5 7.5 0 1 0 14.084 5.163c3.022-8.245 7.281-13.834 12.657-16.61a22.156 22.156 0 0 1 4.542-1.669 35.869 35.869 0 0 0 7.31-2.78c6.647-3.466 12.069-9.18 16.188-17.038a31.91 31.91 0 0 0 21.31 2.183 31.594 31.594 0 0 0 54.05.001Zm19.36-18.88a16.73 16.73 0 0 1-14.877 4.515c.036-.618.066-1.237.066-1.858a31.285 31.285 0 0 0-3.319-14.035 45.208 45.208 0 0 0 3.47-3.07 44.67 44.67 0 0 0 7.722-10.253q.59-1.073 1.118-2.181c.012-.026.026-.051.039-.077a16.6 16.6 0 0 1 5.783 3.736 16.355 16.355 0 0 1-.002 23.223Zm7.302-61.85a16.375 16.375 0 0 1 4.587 29.389c-.426-.478-.859-.95-1.315-1.403a31.593 31.593 0 0 0-12.295-7.567 44.568 44.568 0 0 0-1.603-17.347q-.347-1.16-.755-2.298l-.014-.04a16.79 16.79 0 0 1 11.395-.734Zm-22.18-34.836a16.644 16.644 0 0 1 13.174 3.088 7.463 7.463 0 0 0 2.05 1.809 16.435 16.435 0 0 1 4.191 14.334 31.676 31.676 0 0 0-1.918-.068 31.628 31.628 0 0 0-14.138 3.329 44.766 44.766 0 0 0-3.14-3.502 45.47 45.47 0 0 0-3.473-3.077 31.312 31.312 0 0 0 3.321-14.04c0-.626-.03-1.25-.067-1.873ZM184.32 135.58a16.632 16.632 0 0 1 15.917 11.837 16.327 16.327 0 0 1-.756 11.263l-.057-.019a45.862 45.862 0 0 0-2.366-.773l-.01-.002-.017-.006a45.263 45.263 0 0 0-17.422-1.57 31.368 31.368 0 0 0-7.616-12.254c-.441-.442-.903-.86-1.367-1.272a16.697 16.697 0 0 1 13.694-7.204Zm-46.394 19.1a16.758 16.758 0 0 1 19.746-2.782l.036.02a15.87 15.87 0 0 1 3.691 2.757 16.463 16.463 0 0 1 3.723 5.672c-.022.01-.042.022-.064.033q-1.1.519-2.165 1.092l-.016.01a43.697 43.697 0 0 0-13.415 11.16 31.66 31.66 0 0 0-14.152-3.332c-.64 0-1.277.03-1.914.068a16.46 16.46 0 0 1 4.53-14.698Zm-10.574 58.292c-.455.451-.886.922-1.31 1.398a16.38 16.38 0 0 1 4.606-29.392 16.852 16.852 0 0 1 11.384.74l-.011.035q-.409 1.14-.757 2.302l-.001.003-.003.01a44.519 44.519 0 0 0-1.6 17.332 31.606 31.606 0 0 0-12.308 7.572Zm25.464 38.376a16.749 16.749 0 0 1-14.886-4.515 16.357 16.357 0 0 1-.006-23.221 16.63 16.63 0 0 1 5.802-3.742l.027.054q.528 1.11 1.112 2.187l.012.019a44.638 44.638 0 0 0 7.72 10.254 45.547 45.547 0 0 0 3.47 3.073 31.287 31.287 0 0 0-3.317 14.033c0 .621.03 1.24.066 1.858Zm5.22-36.419a29.96 29.96 0 0 1-2.396-5.755 29.552 29.552 0 0 1-.003-16.829c.195-.652.419-1.293.656-1.927a29.396 29.396 0 0 1 1.74-3.815l.001-.004a30.061 30.061 0 0 1 11.993-11.932 30.049 30.049 0 0 1 22.775-2.395 30.056 30.056 0 0 1 12.685 7.512 29.505 29.505 0 0 1 7.519 29.407q-.22.745-.479 1.477c-.016.045-.035.088-.051.133a28.907 28.907 0 0 1-1.141 2.731q-.335.698-.708 1.376l-.007.013a29.711 29.711 0 0 1-5.134 6.816 30.176 30.176 0 0 1-6.861 5.105l-.004.001a29.746 29.746 0 0 1-5.803 2.39 30.134 30.134 0 0 1-16.999 0q-.745-.219-1.483-.478c-.02-.008-.04-.017-.061-.024a29.921 29.921 0 0 1-11.113-6.995 29.618 29.618 0 0 1-5.127-6.807Zm10.376 39.164a16.337 16.337 0 0 1 .754-11.257l.093.03q1.136.403 2.288.744l.052.017a45.11 45.11 0 0 0 25.433.002c.788-.23 1.57-.485 2.348-.76.034-.013.07-.022.103-.034a16.326 16.326 0 0 1 .75 11.275 16.61 16.61 0 0 1-31.82-.017ZM100.565 147.46a7.5 7.5 0 1 0-7.5-7.5 7.5 7.5 0 0 0 7.5 7.5Zm95-70a7.5 7.5 0 1 0-7.5-7.5 7.5 7.5 0 0 0 7.5 7.5ZM374.25 307a7.5 7.5 0 1 0-7.5 7.5 7.5 7.5 0 0 0 7.5-7.5Zm42.315 54.461a7.5 7.5 0 1 0 7.5 7.5 7.5 7.5 0 0 0-7.5-7.5ZM392.5 307a7.5 7.5 0 1 0 7.5 7.5 7.5 7.5 0 0 0-7.5-7.5ZM367 250a57 57 0 1 0 57 57 57.065 57.065 0 0 0-57-57Zm0 99a42 42 0 1 1 42-42 42.047 42.047 0 0 1-42 42Zm20.87-63.637a7.5 7.5 0 1 0-7.5 7.5 7.5 7.5 0 0 0 7.5-7.5Zm49.135-210.397A254.313 254.313 0 0 0 256 0h-.02A256 256 0 0 0 74.994 437.034 254.313 254.313 0 0 0 256 512h.02A256 256 0 0 0 437.006 74.966ZM426.425 426.4A239.42 239.42 0 0 1 256.02 497H256c-132.877-.003-240.99-108.102-241-240.981A241 241 0 0 1 255.981 15H256c132.877 0 240.99 108.102 241 240.981a239.422 239.422 0 0 1-70.574 170.418Zm-57.382-101.938a7.5 7.5 0 1 0 7.5 7.5 7.5 7.5 0 0 0-7.5-7.5Zm97.509-110.153c-5.3-7.868-10.307-15.299-12.684-22.618-2.533-7.798-2.905-17.059-3.3-26.862-.606-15.078-1.233-30.67-10.117-42.874-8.977-12.335-23.687-17.745-37.912-22.977-9.142-3.362-17.775-6.538-24.289-11.278-6.389-4.648-11.999-11.81-17.938-19.393-9.409-12.01-19.136-24.429-33.859-29.208-14.096-4.575-28.974-.39-43.362 3.655C273.496 45.451 264.433 48 255.983 48s-17.512-2.546-27.108-5.242c-14.392-4.045-29.273-8.226-43.362-3.649-14.722 4.782-24.448 17.202-33.854 29.213-5.938 7.584-11.548 14.747-17.936 19.397-6.513 4.741-15.147 7.918-24.287 11.281-14.224 5.234-28.932 10.646-37.909 22.982-8.881 12.207-9.506 27.8-10.11 42.877-.393 9.804-.764 19.064-3.296 26.863-2.376 7.32-7.38 14.75-12.68 22.618C36.866 227.074 28 240.24 28 256.018c.001 15.777 8.871 28.943 17.448 41.674 5.3 7.868 10.307 15.299 12.684 22.618 2.533 7.798 2.905 17.059 3.3 26.862.606 15.078 1.233 30.67 10.117 42.874 8.977 12.335 23.687 17.745 37.912 22.977 9.142 3.362 17.775 6.538 24.289 11.278 6.389 4.648 11.999 11.81 17.938 19.393 9.409 12.01 19.136 24.429 33.859 29.208a42.696 42.696 0 0 0 13.293 1.994c9.976 0 20.14-2.857 30.07-5.65 9.594-2.697 18.657-5.246 27.107-5.246s17.512 2.546 27.108 5.242c14.39 4.045 29.272 8.224 43.362 3.649 14.722-4.782 24.448-17.202 33.854-29.213 5.938-7.584 11.548-14.747 17.936-19.397 6.513-4.741 15.147-7.918 24.287-11.281 14.224-5.234 28.932-10.646 37.909-22.982 8.881-12.207 9.506-27.8 10.11-42.877.393-9.804.764-19.064 3.296-26.863 2.376-7.32 7.38-14.75 12.68-22.618 8.575-12.734 17.442-25.9 17.441-41.678-.001-15.777-8.871-28.943-17.448-41.674Zm-12.435 74.973c-5.644 8.38-11.48 17.045-14.506 26.366-3.17 9.765-3.6 20.506-4.015 30.893-.54 13.435-1.047 26.124-7.252 34.652-6.3 8.656-18.278 13.064-30.96 17.73-9.701 3.57-19.734 7.262-27.934 13.232-8.08 5.881-14.607 14.216-20.92 22.276-8.387 10.71-16.308 20.827-26.676 24.194-9.772 3.175-21.867-.225-34.671-3.822-10.153-2.853-20.65-5.803-31.168-5.802-10.517.001-21.014 2.952-31.165 5.807-12.805 3.6-24.897 7.003-34.672 3.827-10.369-3.365-18.292-13.48-26.681-24.19-6.313-8.06-12.84-16.392-20.92-22.272-8.204-5.968-18.236-9.658-27.938-13.227-12.683-4.665-24.663-9.07-30.963-17.726-6.206-8.527-6.716-21.216-7.257-34.65-.418-10.387-.85-21.129-4.022-30.893-3.026-9.321-8.864-17.985-14.508-26.364C50.232 277.947 43 267.213 43 256.017c-.001-11.197 7.229-21.933 14.883-33.298 5.644-8.38 11.48-17.045 14.506-26.366 3.17-9.765 3.6-20.506 4.015-30.893.54-13.435 1.047-26.124 7.252-34.652 6.3-8.656 18.278-13.064 30.96-17.73 9.701-3.57 19.734-7.262 27.934-13.232 8.08-5.881 14.607-14.216 20.92-22.276 8.386-10.71 16.308-20.827 26.676-24.194a28.006 28.006 0 0 1 8.696-1.26c7.888 0 16.747 2.49 25.975 5.082 10.153 2.853 20.65 5.803 31.168 5.802 10.517-.001 21.014-2.952 31.165-5.807 12.805-3.6 24.9-7 34.672-3.827 10.368 3.365 18.292 13.48 26.681 24.19 6.313 8.06 12.84 16.392 20.92 22.272 8.204 5.968 18.236 9.658 27.938 13.227 12.683 4.665 24.663 9.07 30.963 17.726 6.206 8.527 6.716 21.216 7.257 34.65.418 10.387.85 21.129 4.022 30.893 3.026 9.321 8.864 17.985 14.508 26.364C461.768 234.053 469 244.787 469 255.983c.001 11.197-7.229 21.933-14.883 33.298Zm-7.552-38.82a7.5 7.5 0 1 0 7.5 7.5 7.5 7.5 0 0 0-7.5-7.5Zm-183.86 56.324c-.784-1.295-1.746-5.296-2.332-7.728-1.843-7.662-4.137-17.197-12.811-18.823-6.522-1.224-12.136 4.322-18.643 10.74a69.425 69.425 0 0 1-6.164 5.665 54.062 54.062 0 0 0-2.284 106.649 54.647 54.647 0 0 0 10.07.94 54.093 54.093 0 0 0 53.016-44.113 54.372 54.372 0 0 0-20.853-53.33Zm6.107 50.567a39.054 39.054 0 1 1-43.3-45.95c4.438-.562 8.01-3.899 13.941-9.75 1.355-1.335 3.24-3.195 4.874-4.65.555 1.79 1.082 3.984 1.462 5.563 1.565 6.505 3.043 12.65 7.703 16.064a39.288 39.288 0 0 1 15.32 38.723Zm45.71-183.236 8.106-12.62a7.5 7.5 0 0 0-12.621-8.107l-8.107 12.62a7.5 7.5 0 1 0 12.622 8.107Zm28.554 3.19a7.5 7.5 0 0 0 11.426-9.72l-9.72-11.425a7.5 7.5 0 0 0-11.426 9.72ZM193.565 432.46a7.5 7.5 0 1 0 7.5 7.5 7.5 7.5 0 0 0-7.5-7.5ZM334.12 201.06a7.5 7.5 0 0 0 1.534-14.842l-14.68-3.084a7.5 7.5 0 1 0-3.083 14.68l14.68 3.084a7.523 7.523 0 0 0 1.55.162Zm11.444 108.401a7.5 7.5 0 1 0 7.5 7.5 7.5 7.5 0 0 0-7.5-7.5Zm2.935-28.916a7.5 7.5 0 1 0 7.5 7.5 7.5 7.5 0 0 0-7.5-7.5ZM380 175.5a51.5 51.5 0 1 0-51.5 51.5 51.558 51.558 0 0 0 51.5-51.5Zm-88 0a36.5 36.5 0 1 1 36.5 36.5 36.542 36.542 0 0 1-36.5-36.5Zm22.565 256.961a7.5 7.5 0 1 0 7.5 7.5 7.5 7.5 0 0 0-7.5-7.5Z"></path></svg>