<svg xmlns="http://www.w3.org/2000/svg" viewBox="0 0 512 512" id="stove"><circle cx="176" cy="400" r="16" fill="none" stroke="#000" stroke-linecap="round" stroke-linejoin="round" stroke-width="16"></circle><circle cx="256" cy="400" r="16" fill="none" stroke="#000" stroke-linecap="round" stroke-linejoin="round" stroke-width="16"></circle><circle cx="336" cy="400" r="16" fill="none" stroke="#000" stroke-linecap="round" stroke-linejoin="round" stroke-width="16"></circle><rect width="448" height="448" x="32" y="32" fill="none" stroke="#000" stroke-linecap="round" stroke-linejoin="round" stroke-width="16" rx="20" ry="20"></rect><circle cx="128" cy="291.11" r="64" fill="none" stroke="#000" stroke-linecap="round" stroke-linejoin="round" stroke-width="16"></circle><circle cx="384" cy="291.11" r="64" fill="none" stroke="#000" stroke-linecap="round" stroke-linejoin="round" stroke-width="16"></circle><circle cx="256" cy="128" r="64" fill="none" stroke="#000" stroke-linecap="round" stroke-linejoin="round" stroke-width="16"></circle><path fill="none" stroke="#000" stroke-linecap="round" stroke-linejoin="round" stroke-width="16" d="m320 67.11-32 32M192 67.11l32 32M320 196.43l-32-33.32M224 163.11l-32 32M192 227.11l-32 32M192 355.11l-32-32M96 323.11l-32 32M64 227.11l32 32M352 259.11l-32-32M416 259.11l32-32M416 323.11l32 32M352 323.11l-32 32M32 448h384M448 448h32"></path></svg>
