<svg xmlns="http://www.w3.org/2000/svg" viewBox="0 0 64 64" id="grill"><path d="M59 21a3 3 0 0 0 3-3v-1a3 3 0 0 0-3-3H5a3 3 0 0 0-3 3v1a3 3 0 0 0 3 3h.038A26.674 26.674 0 0 0 8.92 34H3a1 1 0 0 0-1 1v6a1 1 0 0 0 1 1h4v19a1 1 0 0 0 1 1h5a1 1 0 0 0 1-1V42h36v19a1 1 0 0 0 1 1h5a1 1 0 0 0 1-1V42h4a1 1 0 0 0 1-1v-6a1 1 0 0 0-1-1h-5.92a26.674 26.674 0 0 0 3.882-13zM4 18v-1a1 1 0 0 1 1-1h54a1 1 0 0 1 1 1v1a1 1 0 0 1-1 1H5a1 1 0 0 1-1-1zm8 42H9V42h3zm43 0h-3V42h3zm5-20H4v-4h56zm-7.309-6H11.309a24.666 24.666 0 0 1-4.271-13h49.924a24.666 24.666 0 0 1-4.271 13zM30.2 12h2c0-.411.134-.571.522-.975a3.122 3.122 0 0 0 0-4.72c-.388-.4-.522-.564-.522-.975s.134-.569.521-.972A3.143 3.143 0 0 0 33.8 2h-2c0 .409-.134.569-.521.972a3.119 3.119 0 0 0 0 4.718c.388.4.522.564.522.975s-.134.571-.522.975A3.151 3.151 0 0 0 30.2 12zm15 0h2c0-.411.134-.571.522-.975a3.122 3.122 0 0 0 0-4.72c-.388-.4-.522-.564-.522-.975s.134-.569.521-.972A3.143 3.143 0 0 0 48.8 2h-2c0 .409-.134.569-.521.972a3.119 3.119 0 0 0 0 4.718c.388.4.522.564.522.975s-.134.571-.522.975A3.151 3.151 0 0 0 45.2 12zm-30 0h2c0-.411.134-.571.522-.975a3.122 3.122 0 0 0 0-4.72c-.388-.4-.522-.564-.522-.975s.134-.569.521-.972A3.143 3.143 0 0 0 18.8 2h-2c0 .409-.134.569-.521.972a3.119 3.119 0 0 0 0 4.718c.388.4.522.564.522.975s-.134.571-.522.975A3.151 3.151 0 0 0 15.2 12z"></path></svg>
