<svg xmlns="http://www.w3.org/2000/svg" data-name="Layer 1" viewBox="0 0 1000 1000" id="lamp"><path d="M474.45 794.16a16 16 0 01-16-16V658.36c0-36.43-13.2-72.58-37.16-101.79-41.08-50.07-25-117.79-24.25-120.64a16 16 0 0131.07 7.63h0c-.13.55-12.85 55.21 17.92 92.71 28.64 34.92 44.42 78.28 44.42 122.09v119.8A16 16 0 01474.45 794.16zM525.55 794.16a16 16 0 01-16-16V658.36c0-43.81 15.78-87.17 44.42-122.08 30.77-37.51 18-92.17 17.92-92.72A16 16 0 01603 435.93c.71 2.85 16.83 70.57-24.25 120.64-24 29.21-37.16 65.36-37.16 101.79v119.8A16 16 0 01525.55 794.16z"></path><path d="M607.69,855.08H392.31a16,16,0,0,1-16-16v-8.26A68.74,68.74,0,0,1,445,762.16H555a68.74,68.74,0,0,1,68.66,68.66v8.26A16,16,0,0,1,607.69,855.08Zm-198.56-32H590.87A36.73,36.73,0,0,0,555,794.16H445A36.73,36.73,0,0,0,409.13,823.08Z"></path><path d="M673.07 916H326.93a16 16 0 01-16-16v-8.26a68.74 68.74 0 0168.66-68.66H620.41a68.74 68.74 0 0168.66 68.66V900A16 16 0 01673.07 916zM343.75 884h312.5a36.72 36.72 0 00-35.84-28.92H379.59A36.72 36.72 0 00343.75 884zM707.61 455.77H292.39a41.82 41.82 0 01-38.09-59.08c50.13-110.29 77.81-199.58 87.12-281A16 16 0 01353.5 102a608.37 608.37 0 01293 0 16 16 0 0112.08 13.72c9.31 81.41 37 170.7 87.12 281a41.82 41.82 0 01-38.09 59.08zM371.83 130.53c-10.86 81.77-39.1 170.94-88.4 279.4a9.82 9.82 0 009 13.84H707.61a9.82 9.82 0 009-13.84c-49.3-108.46-77.54-197.63-88.4-279.4A575.85 575.85 0 00371.83 130.53z"></path><path d="M360.3 389.65a16 16 0 01-14.67-22.36c36.42-84.1 58.56-154.13 69.65-220.4a16 16 0 1131.56 5.28C435.31 221.07 412.48 293.47 375 380A16 16 0 01360.3 389.65zM639.7 389.65A16 16 0 01625 380c-37.49-86.54-60.32-158.94-71.85-227.84a16 16 0 1131.56-5.28c11.09 66.27 33.23 136.3 69.65 220.4a16 16 0 01-14.67 22.36z"></path></svg>
