<svg id="Layer_1" data-name="Layer 1" xmlns="http://www.w3.org/2000/svg" viewBox="0 0 122.88 92.58"><title>terrace</title><path d="M60.48,34.21V83.9H77L81.9,71.69H79.28a3.26,3.26,0,0,1,0-6.51H92l-2.43-5.39h-8a2,2,0,1,1,0-4.07H102l2-12.54a3.24,3.24,0,0,1,6.4,1l-4,24.74a3.24,3.24,0,0,1-3.2,2.74H99.38l5.5,12.21h17.78v8.68H0V83.9H11.06l5.5-12.21H12.7a3.24,3.24,0,0,1-3.2-2.74l-4-24.74a3.25,3.25,0,0,1,6.41-1l2,12.54H34.39a2,2,0,1,1,0,4.07h-8L24,65.18H36.66a3.26,3.26,0,0,1,0,6.51H34L39,83.9h16.6V34.21H26.7a1.78,1.78,0,0,1-1.78-1.78,1.09,1.09,0,0,1,0-.18A32,32,0,0,1,34.67,9.53,33.34,33.34,0,0,1,57.49.09a1.73,1.73,0,0,1,1.1,0,33.34,33.34,0,0,1,22.7,9.44A32.12,32.12,0,0,1,91,32.43a1.75,1.75,0,0,1-1.77,1.77H60.48Zm43.75-22.28a.79.79,0,0,1,.29-1.08.78.78,0,0,1,1.08.3l1,1.75a.79.79,0,1,1-1.37.8l-1-1.77Zm6.31,2.61a7.07,7.07,0,1,1-5,2.07,7.11,7.11,0,0,1,5-2.07Zm-.62-4.46a.8.8,0,1,1,1.59,0v2a.8.8,0,0,1-1.59,0v-2Zm5.86,1.23a.79.79,0,0,1,1.08-.29.82.82,0,0,1,.29,1.09l-1,1.75a.8.8,0,0,1-1.08.3.79.79,0,0,1-.28-1.08l1-1.77Zm4.44,4a.79.79,0,1,1,.79,1.37l-1.75,1a.78.78,0,0,1-1.08-.29.79.79,0,0,1,.29-1.08l1.75-1ZM122.08,21a.8.8,0,1,1,0,1.59h-2a.8.8,0,0,1-.8-.8.79.79,0,0,1,.8-.79Zm-1.23,5.86a.79.79,0,1,1-.79,1.37l-1.76-1a.79.79,0,0,1-.28-1.08.78.78,0,0,1,1.08-.28l1.75,1Zm-4,4.44a.8.8,0,0,1-1.38.79l-1-1.76a.8.8,0,0,1,1.38-.79l1,1.76Zm-5.69,1.86a.8.8,0,1,1-1.59,0v-2a.8.8,0,1,1,1.59,0v2Zm-5.86-1.23a.79.79,0,0,1-1.37-.8l1-1.76a.8.8,0,0,1,1.08-.29.79.79,0,0,1,.28,1.08l-1,1.77Zm-4.44-4a.8.8,0,0,1-.8-1.38l1.75-1a.8.8,0,0,1,1.09.3.79.79,0,0,1-.3,1.08l-1.74,1ZM99,22.24a.8.8,0,0,1,0-1.6h2a.8.8,0,0,1,0,1.6Zm1.23-5.85a.8.8,0,0,1-.29-1.08A.79.79,0,0,1,101,15l1.75,1a.79.79,0,0,1,.29,1.08.79.79,0,0,1-1.08.28l-1.75-1ZM15.5,83.9H34.59l-5-12.21H21L15.5,83.9Zm6.42-24.11H14.59l.87,5.39h4l2.43-5.39ZM100.43,83.9l-5.5-12.21H86.31l-5,12.21Zm-4-18.72h4l.87-5.39H94l2.42,5.39ZM78.82,12.07a29.76,29.76,0,0,0-8.39-5.74,27.6,27.6,0,0,1,3.06,5.93,54.73,54.73,0,0,1,3,18.39h11a28.54,28.54,0,0,0-8.58-18.58Zm-15.64-8a33.37,33.37,0,0,0-3.37-.4v27H72.9a50.71,50.71,0,0,0-2.74-17.13c-1.57-4.21-3.88-7.47-7-9.44Zm-6.93-.41c-1.11.07-2.23.19-3.31.36-3.14,2-5.46,5.28-7,9.53a51.46,51.46,0,0,0-2.72,17.07H56.27v-27ZM45.72,6.25a29.52,29.52,0,0,0-8.57,5.84,28.56,28.56,0,0,0-8.6,18.56H39.63a55.21,55.21,0,0,1,2.94-18.32,26.22,26.22,0,0,1,3.15-6.08Z"/></svg>
