<svg xmlns="http://www.w3.org/2000/svg" width="64" height="64" id="tea-cup"><path d="M59.69 18.91a8.099 8.099 0 0 0-5.99-2.47c-1.33.03-2.67.28-4.02.73-.61-2.07-2.51-3.59-4.77-3.59H28.99V11.6c0-2.52-2.05-4.57-4.57-4.57s-4.57 2.05-4.57 4.57v1.97h-8.77c-2.76 0-5 2.24-5 5v13.35c0 .04 0 .08.01.11l.57 4.95c.56 4.88 3.43 8.98 7.44 11.28H3c-.55 0-1 .45-1 1v2.71c0 2.76 2.24 5 5 5h41.98c2.76 0 5-2.24 5-5v-2.71c0-.55-.45-1-1-1H41.89c3.47-1.99 6.07-5.33 7.08-9.36 1.09.32 2.13.49 3.12.49 1.4 0 2.7-.32 3.89-.96 4.45-2.39 5.72-8.56 6.01-13.31.13-2.3-.7-4.56-2.3-6.21zm-9.78 4.68c1.35-.73 2.67-1.13 3.93-1.16.57-.02 1.11.21 1.53.64.43.45.66 1.06.62 1.69-.31 5.22-1.68 7.75-2.86 8.38-.9.48-2.22.15-3.32-.3.17-.2.08-8.77.1-9.25zM21.84 11.6a2.57 2.57 0 1 1 5.14 0v1.97h-5.15V11.6zm30.14 38.66v1.71c0 1.65-1.35 3-3 3H7c-1.65 0-3-1.35-3-3v-1.71h47.98zm-17.55-2H21.55c-6.61 0-12.16-4.95-12.91-11.51l-.56-4.89V18.57c0-1.65 1.35-3 3-3h8.77v11.3l-3.93 3.7c-.2.19-.31.45-.31.73v7.84c0 .55.45 1 1 1h8.49c.55 0 1-.45 1-1V31.3c0-.28-.11-.54-.31-.73l-3.93-3.7v-11.3h23.07c1.65 0 3 1.35 3 3v13.29l-.56 4.89c-.78 6.56-6.33 11.51-12.94 11.51zM20.84 28.68l3.25 3.06v6.41H17.6v-6.41l3.24-3.06zM59.99 25c-.25 4.25-1.32 9.72-4.96 11.67-1.6.86-3.51.94-5.69.25l.23-2.03c.91.32 1.74.5 2.5.5.75 0 1.42-.16 2.01-.48 2.21-1.18 3.59-4.75 3.91-10.03.07-1.18-.36-2.34-1.18-3.2-.81-.84-1.89-1.29-3.02-1.25-1.27.03-2.57.34-3.88.92V19.2c1.29-.48 2.58-.74 3.83-.77 1.7-.04 3.33.64 4.51 1.86A6.285 6.285 0 0 1 59.99 25z"></path></svg>
