<svg id="Layer_1" data-name="Layer 1" xmlns="http://www.w3.org/2000/svg" viewBox="0 0 64 64"><defs><style>.cls-1{fill:none;stroke:#000;stroke-linecap:round;stroke-linejoin:round;stroke-width:1.1px;}</style></defs><path class="cls-1" d="M4.71,55.37a2.9,2.9,0,0,0-1.1,2.19,2.85,2.85,0,0,0,1.1,2.21H58.56A2.85,2.85,0,0,0,59.66,57a2.81,2.81,0,0,0-1.1-1.67Z"/><path class="cls-1" d="M55.66,55.41V40.73a17.51,17.51,0,0,0-16-13.42H24.27"/><path class="cls-1" d="M7.66,55.41V40.73a17.51,17.51,0,0,1,16-13.42H39.05"/><line class="cls-1" x1="10.23" y1="55.41" x2="53.09" y2="55.41"/><path class="cls-1" d="M19.73,27.58V23.76a.75.75,0,0,1-.55,0c-.59-.25-.56-1.41-.55-1.63,0-1.7,3-3.44,5.49-4.37a20,20,0,0,1,11-.54,24.65,24.65,0,0,1,8.24,3.27,2.41,2.41,0,0,1,.55,1.64,2.58,2.58,0,0,1-1.65,2.18v3.27"/><ellipse class="cls-1" cx="23.57" cy="23.22" rx="1.1" ry="1.09"/><circle class="cls-1" cx="28.24" cy="24.58" r="0.27"/><circle class="cls-1" cx="32.91" cy="22.13" r="0.55"/><ellipse class="cls-1" cx="34.29" cy="26.22" rx="0.82" ry="0.82"/><ellipse class="cls-1" cx="39.51" cy="24.85" rx="1.1" ry="1.09"/><path class="cls-1" d="M24.05,14.46a3.19,3.19,0,0,1,0-1.42c.21-.88.75-1.25,1.43-2.12.8-1,1.48-1.91,1.42-2.84-.07-1.16-1.25-1.4-2.14-2.83A6.26,6.26,0,0,1,24.05,1"/><path class="cls-1" d="M27.9,14.46a3.05,3.05,0,0,1,0-1.42c.21-.88.74-1.25,1.42-2.12.81-1,1.49-1.91,1.43-2.84-.07-1.16-1.25-1.4-2.14-2.83A6.2,6.2,0,0,1,27.9,1"/><path class="cls-1" d="M32.29,14.46a3.19,3.19,0,0,1,0-1.42c.21-.88.75-1.25,1.43-2.12.81-1,1.48-1.91,1.43-2.84-.08-1.16-1.26-1.4-2.15-2.83A6.32,6.32,0,0,1,32.29,1"/><path class="cls-1" d="M35.59,14.46a3.05,3.05,0,0,1,0-1.42c.21-.88.75-1.25,1.43-2.12.8-1,1.48-1.91,1.42-2.84-.07-1.16-1.25-1.4-2.14-2.83A6.26,6.26,0,0,1,35.59,1"/><path class="cls-1" d="M21.92,36.86h17.6V49.42a7.79,7.79,0,0,1-4.41,3.8H26.87a6.36,6.36,0,0,1-4.95-3.81Z"/><ellipse class="cls-1" cx="30.99" cy="45.31" rx="4.67" ry="4.64"/><line class="cls-1" x1="30.17" y1="45.59" x2="34.01" y2="41.77"/><path class="cls-1" d="M6.54,59.77h8.79a0,0,0,0,1,0,0v1.49a1.24,1.24,0,0,1-1.24,1.24H7.78a1.24,1.24,0,0,1-1.24-1.24V59.77a0,0,0,0,1,0,0Z"/><path class="cls-1" d="M47.2,59.77H56a0,0,0,0,1,0,0v1.49a1.24,1.24,0,0,1-1.24,1.24H48.44a1.24,1.24,0,0,1-1.24-1.24V59.77A0,0,0,0,1,47.2,59.77Z"/><path class="cls-1" d="M56,44h4.4a4.45,4.45,0,0,0-.55-1.09,3.87,3.87,0,0,0-2.2-1.64,3.51,3.51,0,0,0-1.65,0Z"/></svg>