<svg id="Layer_1" data-name="Layer 1" xmlns="http://www.w3.org/2000/svg" viewBox="0 0 64 64"><defs><style>.cls-1{fill:none;stroke:#000;stroke-linecap:round;stroke-linejoin:round;}</style></defs><path class="cls-1" d="M7.87,24.29v23H21.1"/><path class="cls-1" d="M56.7,24.21V47H43.31"/><path class="cls-1" d="M44.89,50.12c1.86,0,5,0,8.74,0a3.08,3.08,0,0,0,1.73-.47A3.75,3.75,0,0,0,56.7,47"/><path class="cls-1" d="M19.68,50.12c-1.87,0-5,0-8.74,0a3,3,0,0,1-1.73-.47A3.68,3.68,0,0,1,7.87,47"/><path class="cls-1" d="M7.87,26.26H56.7"/><path class="cls-1" d="M7.87,29.8a12.81,12.81,0,0,1-5-2.36c-.89-.7-2-1.54-1.81-2.21.3-1.22,4.88-1.06,5.9-1,6.52.21,26.48.17,55.3,0,.66.36.77.68.78.86s-.17.8-2.44,1.89a26.09,26.09,0,0,1-3.86,1.5"/><path class="cls-1" d="M7.55,23.42a5.65,5.65,0,0,1,1-3.94c.85-1.1,2-1.64,5.12-2.2,4.13-.76,6.2-1.13,6.93-1.18a120,120,0,0,1,13.31-.48C36,15.68,40,16.1,48,17c2.44.27,5,.11,6.77,2a6.62,6.62,0,0,1,1.57,4.25"/><path class="cls-1" d="M28.35,15.54a3.58,3.58,0,0,1,1.18-2,3.75,3.75,0,0,1,3.23-.71,4.24,4.24,0,0,1,2.83,2.75"/><path class="cls-1" d="M15.27,57.36H49.61"/><path class="cls-1" d="M24.64,46.18c.47.09.11,1.57,1,3.55.57,1.22,1,1.36,1.18,2.36a3.11,3.11,0,0,1-.63,2.52,2.73,2.73,0,0,1-2.91.79,2.74,2.74,0,0,1-1.42-1.58c-.61-1.54.14-3.09,1.34-5.59C23.78,47.09,24.26,46.11,24.64,46.18Z"/><path class="cls-1" d="M32.75,43.82c.58.11.13,2,1.28,4.44.71,1.53,1.3,1.71,1.48,3a3.93,3.93,0,0,1-.79,3.16,3.42,3.42,0,0,1-3.65,1,3.45,3.45,0,0,1-1.78-2c-.76-1.92.18-3.87,1.68-7C31.66,45,32.26,43.73,32.75,43.82Z"/><path class="cls-1" d="M41.05,46.18c.47.09.11,1.57,1,3.54.56,1.23,1,1.37,1.18,2.37a3.16,3.16,0,0,1-.63,2.52,2.47,2.47,0,0,1-4.33-.79c-.61-1.54.13-3.09,1.34-5.59C40.18,47.08,40.66,46.11,41.05,46.18Z"/><path class="cls-1" d="M44.26,12.87a3.76,3.76,0,0,0,.86-1.5,4,4,0,0,0-.23-2.6c-.57-1.4-1.41-1.63-1.34-2.36,0-.4.34-1,1.73-1.58"/><path class="cls-1" d="M49,13.89a3.64,3.64,0,0,0,.87-1.49,4,4,0,0,0-.24-2.6C49,8.4,48.19,8.17,48.26,7.44c0-.4.35-1,1.73-1.58"/></svg>