<svg xmlns="http://www.w3.org/2000/svg" id="Layer_1" data-name="Layer 1" viewBox="0 0 64 64"><defs><style>.cls-1{fill:#fff;}.cls-2{fill:#ff9f1c;}</style></defs><ellipse class="cls-1" cx="32" cy="31.5" rx="27" ry="27.5"/><path class="cls-2" d="M23.43,20c.14-.69.37-1.72.66-3a50.26,50.26,0,0,1,1.71-6.23c1.41-3.76,2.76-5,3.33-5.41a3.61,3.61,0,0,1,2.23-1c.28,0,1.36,0,3,1.55a13.29,13.29,0,0,1,3.26,6,53.71,53.71,0,0,1,1.93,8.15,45.27,45.27,0,0,1-9.86.59A44.44,44.44,0,0,1,23.43,20Z"/><path class="cls-2" d="M23.43,43.29c.14.69.37,1.72.66,3a50,50,0,0,0,1.71,6.22c1.41,3.77,2.76,5,3.33,5.41a3.65,3.65,0,0,0,2.23,1c.28,0,1.36,0,3-1.56a13.26,13.26,0,0,0,3.26-6,53.88,53.88,0,0,0,1.93-8.16,45.27,45.27,0,0,0-9.86-.59A44.44,44.44,0,0,0,23.43,43.29Z"/><path class="cls-2" d="M23.06,21.82c-.15,1.43-.27,2.92-.37,4.44s-.18,2.91-.23,4.3l17.94.08q0-1.89-.15-3.93C40.15,25,40,23.46,39.81,22a72.72,72.72,0,0,1-9.86.37C27.48,22.26,25.18,22.07,23.06,21.82Z"/><path class="cls-2" d="M23.13,41.46C23,40,22.86,38.53,22.76,37s-.17-2.9-.22-4.3l17.94-.07q0,1.88-.15,3.93-.16,2.49-.45,4.74A72.72,72.72,0,0,0,30,40.94C27.56,41,25.25,41.2,23.13,41.46Z"/><path class="cls-2" d="M41.44,19.74c-.16-.84-.4-2-.74-3.48a38.21,38.21,0,0,0-1.78-6A26.09,26.09,0,0,0,36,5.06a19.51,19.51,0,0,1,2,.82,20.27,20.27,0,0,1,4.59,3,24,24,0,0,1,6.68,9.19,31.14,31.14,0,0,1-4.08,1.11A31.42,31.42,0,0,1,41.44,19.74Z"/><path class="cls-2" d="M21.65,19.74c.15-.84.39-2,.74-3.48a38.21,38.21,0,0,1,1.78-6,26.09,26.09,0,0,1,2.89-5.19,19.51,19.51,0,0,0-2,.82,20.15,20.15,0,0,0-4.6,3,24.13,24.13,0,0,0-4.67,5.33,24.49,24.49,0,0,0-2,3.86,31.14,31.14,0,0,0,4.08,1.11A30.89,30.89,0,0,0,21.65,19.74Z"/><path class="cls-2" d="M41.44,43.46c-.16.84-.4,2-.74,3.48a38.21,38.21,0,0,1-1.78,6A25.79,25.79,0,0,1,36,58.13a17.11,17.11,0,0,0,2-.81,20.27,20.27,0,0,0,4.59-3,23.64,23.64,0,0,0,4.67-5.34,23.4,23.4,0,0,0,2-3.85A31.14,31.14,0,0,0,45.22,44,29.52,29.52,0,0,0,41.44,43.46Z"/><path class="cls-2" d="M21.65,43.46c.15.84.39,2,.74,3.48a38.21,38.21,0,0,0,1.78,6,25.79,25.79,0,0,0,2.89,5.18,17.11,17.11,0,0,1-2-.81,20.15,20.15,0,0,1-4.6-3,23.94,23.94,0,0,1-6.67-9.19A31.14,31.14,0,0,1,17.87,44,29.05,29.05,0,0,1,21.65,43.46Z"/><path class="cls-2" d="M41.74,21.67l.51,8.89,9.57.15a27.67,27.67,0,0,0-.6-6.23,27,27,0,0,0-1.41-4.59A30.93,30.93,0,0,1,46,21,31.24,31.24,0,0,1,41.74,21.67Z"/><path class="cls-2" d="M21.28,21.52l-.52,8.89-9.56.15a27.59,27.59,0,0,1,.6-6.22,26.93,26.93,0,0,1,1.4-4.6A32,32,0,0,0,17,20.85,31.6,31.6,0,0,0,21.28,21.52Z"/><path class="cls-2" d="M41.74,41.68l.51-8.89,9.57-.15a27.59,27.59,0,0,1-.6,6.22,26.87,26.87,0,0,1-1.41,4.6,31.71,31.71,0,0,0-8.07-1.78Z"/><path class="cls-2" d="M21.28,41.68l-.52-8.89-9.56-.15a27.59,27.59,0,0,0,.6,6.22,26.93,26.93,0,0,0,1.4,4.6A32,32,0,0,1,17,42.35,31.6,31.6,0,0,1,21.28,41.68Z"/><path class="cls-2" d="M50.93,17.52c-.16-.35-.38-.84-.67-1.41a29.52,29.52,0,0,0-2.67-4.45,23.63,23.63,0,0,0-2.3-2.74c-1.44-1.47-2.59-2.11-2.52-2.23a13.56,13.56,0,0,1,3.71,1.93c.33.22,1.31.87,2.52,1.85a29.1,29.1,0,0,1,3.48,3.34A27,27,0,0,1,54.19,16c-.56.32-1.18.65-1.86,1C51.85,17.15,51.38,17.34,50.93,17.52Z"/><path class="cls-2" d="M50.93,45.74c-.16.35-.38.83-.67,1.41a29.52,29.52,0,0,1-2.67,4.45,24.51,24.51,0,0,1-2.3,2.74c-1.44,1.47-2.59,2.11-2.52,2.22s2-.78,3.71-1.92A31.13,31.13,0,0,0,49,52.78a28.51,28.51,0,0,0,3.48-3.33c.74-.85,1.31-1.6,1.71-2.15-.56-.33-1.18-.65-1.86-1C51.85,46.11,51.38,45.91,50.93,45.74Z"/><path class="cls-2" d="M51.52,19.15c.27.73.59,1.65.89,2.74a34.63,34.63,0,0,1,.89,4.22,36.15,36.15,0,0,1,.37,4.6h5.48c0-.37,0-.88-.07-1.48a22.73,22.73,0,0,0-.44-2.82,31.68,31.68,0,0,0-1-3.93,24.43,24.43,0,0,0-2.45-5,11.13,11.13,0,0,1-1.63,1A12.31,12.31,0,0,1,51.52,19.15Z"/><path class="cls-2" d="M51.52,44c.27-.73.59-1.65.89-2.74a34.63,34.63,0,0,0,.89-4.22,36.15,36.15,0,0,0,.37-4.6h5.48c0,.37,0,.88-.07,1.48a22.44,22.44,0,0,1-.44,2.82,31.68,31.68,0,0,1-1,3.93,24.19,24.19,0,0,1-2.45,5,11.16,11.16,0,0,0-1.63-1A11.56,11.56,0,0,0,51.52,44Z"/><path class="cls-2" d="M9.75,15.85c.4-.56.94-1.28,1.63-2.08A27.79,27.79,0,0,1,14.2,11a29.84,29.84,0,0,1,4.3-3c-.45.46-1,1.06-1.63,1.78-.29.33-.73.86-1.26,1.56A27,27,0,0,0,13.83,14a28.9,28.9,0,0,0-1.63,3.18,6.84,6.84,0,0,1-1.63-.74A6.46,6.46,0,0,1,9.75,15.85Z"/><path class="cls-2" d="M9.75,47.42a24.92,24.92,0,0,0,1.63,2.08,26.67,26.67,0,0,0,2.82,2.74,29.84,29.84,0,0,0,4.3,3c-.45-.46-1-1.06-1.63-1.78-.29-.33-.73-.85-1.26-1.55a29.86,29.86,0,0,1-1.78-2.67,29.13,29.13,0,0,1-1.63-3.19,6.84,6.84,0,0,0-1.63.74A7.64,7.64,0,0,0,9.75,47.42Z"/><path class="cls-2" d="M11.46,18.81c-.14.37-.33.87-.52,1.49a32,32,0,0,0-1,3.92c-.28,1.53-.42,2.74-.66,5-.07.58-.12,1.07-.15,1.41H4.86c0-.34,0-.8,0-1.34a17.9,17.9,0,0,1,.3-2.52,27.45,27.45,0,0,1,1.55-5.11,30.67,30.67,0,0,1,2.08-4.15Z"/><path class="cls-2" d="M11.46,44.31c-.14-.36-.33-.87-.52-1.48a32.94,32.94,0,0,1-1-3.93c-.28-1.53-.42-2.73-.66-5-.07-.58-.12-1.06-.15-1.4H4.86c0,.33,0,.79,0,1.33a17.9,17.9,0,0,0,.3,2.52,27.2,27.2,0,0,0,1.55,5.11,30.71,30.71,0,0,0,2.08,4.16Z"/></svg>
