<svg id="Layer_1" data-name="Layer 1" xmlns="http://www.w3.org/2000/svg" viewBox="0 0 64 64"><defs><style>.cls-1{fill:#141414;}</style></defs><path class="cls-1" d="M23.66,20.14c.14-.67.36-1.67.65-2.88A47.66,47.66,0,0,1,26,11.2c1.37-3.67,2.69-4.83,3.25-5.27A3.58,3.58,0,0,1,31.38,5c.27,0,1.32,0,2.88,1.52a13.06,13.06,0,0,1,3.18,5.84,54.79,54.79,0,0,1,1.87,7.94,43.61,43.61,0,0,1-9.59.57A43.85,43.85,0,0,1,23.66,20.14Z"/><path class="cls-1" d="M23.66,42.85c.14.67.36,1.67.65,2.88A48.39,48.39,0,0,0,26,51.8c1.37,3.66,2.69,4.82,3.25,5.26a3.58,3.58,0,0,0,2.17.94c.27,0,1.32,0,2.88-1.52a13,13,0,0,0,3.18-5.84,54.79,54.79,0,0,0,1.87-7.94,44.88,44.88,0,0,0-9.59-.57A43.85,43.85,0,0,0,23.66,42.85Z"/><path class="cls-1" d="M23.3,22c-.14,1.4-.27,2.84-.37,4.33s-.16,2.82-.21,4.18l17.46.07c0-1.22-.06-2.5-.15-3.82-.1-1.62-.25-3.16-.43-4.62a72.24,72.24,0,0,1-9.6.36C27.6,22.38,25.36,22.2,23.3,22Z"/><path class="cls-1" d="M23.37,41.06Q23.16,39,23,36.74c-.1-1.43-.17-2.83-.22-4.19l17.46-.07c0,1.22-.06,2.5-.15,3.82-.1,1.62-.25,3.16-.43,4.62a72.15,72.15,0,0,0-9.59-.36C27.67,40.63,25.43,40.81,23.37,41.06Z"/><path class="cls-1" d="M41.19,19.93c-.15-.82-.39-2-.72-3.39a37.56,37.56,0,0,0-1.74-5.85,24.36,24.36,0,0,0-2.81-5,17.71,17.71,0,0,1,1.95.8,19.83,19.83,0,0,1,4.47,3,23.49,23.49,0,0,1,4.55,5.2,23,23,0,0,1,1.94,3.75,29.72,29.72,0,0,1-4,1.08A31.59,31.59,0,0,1,41.19,19.93Z"/><path class="cls-1" d="M21.92,19.93c.16-.82.39-2,.73-3.39a36.51,36.51,0,0,1,1.73-5.85,24.84,24.84,0,0,1,2.81-5,18.55,18.55,0,0,0-2,.8,19.83,19.83,0,0,0-4.47,3,23.49,23.49,0,0,0-4.55,5.2,23,23,0,0,0-1.94,3.75,29.48,29.48,0,0,0,4,1.08A31.16,31.16,0,0,0,21.92,19.93Z"/><path class="cls-1" d="M41.19,43c-.15.82-.39,2-.72,3.39a37.56,37.56,0,0,1-1.74,5.85,24.36,24.36,0,0,1-2.81,5,17.71,17.71,0,0,0,1.95-.8,19.83,19.83,0,0,0,4.47-3,23.49,23.49,0,0,0,4.55-5.2,23,23,0,0,0,1.94-3.75,29.72,29.72,0,0,0-4-1.08A31.59,31.59,0,0,0,41.19,43Z"/><path class="cls-1" d="M21.92,43c.16.82.39,2,.73,3.39a36.51,36.51,0,0,0,1.73,5.85,24.84,24.84,0,0,0,2.81,5,18.55,18.55,0,0,1-2-.8,19.83,19.83,0,0,1-4.47-3,23.49,23.49,0,0,1-4.55-5.2,23,23,0,0,1-1.94-3.75,29.48,29.48,0,0,1,4-1.08A31.16,31.16,0,0,1,21.92,43Z"/><path class="cls-1" d="M41.48,21.8l.5,8.66,9.31.14a26.66,26.66,0,0,0-.58-6.06,27.12,27.12,0,0,0-1.37-4.47,29.83,29.83,0,0,1-3.68,1.08A29.4,29.4,0,0,1,41.48,21.8Z"/><path class="cls-1" d="M21.57,21.66l-.51,8.66-9.3.14a27.12,27.12,0,0,1,.57-6.06,26.53,26.53,0,0,1,1.37-4.47A30.9,30.9,0,0,0,17.38,21,31.27,31.27,0,0,0,21.57,21.66Z"/><path class="cls-1" d="M41.48,41.28l.5-8.66,9.31-.14a26.61,26.61,0,0,1-.58,6.06A27.12,27.12,0,0,1,49.34,43a29.83,29.83,0,0,0-3.68-1.08A30.91,30.91,0,0,0,41.48,41.28Z"/><path class="cls-1" d="M21.57,41.28l-.51-8.66-9.3-.14A26.48,26.48,0,0,0,13.7,43a30.9,30.9,0,0,1,3.68-1.08A31.27,31.27,0,0,1,21.57,41.28Z"/><path class="cls-1" d="M50.42,17.76c-.15-.33-.37-.81-.65-1.37a29.27,29.27,0,0,0-2.59-4.33,24.52,24.52,0,0,0-2.24-2.67C43.54,8,42.41,7.34,42.49,7.23a13,13,0,0,1,3.6,1.87,30.17,30.17,0,0,1,5.85,5.05c.72.82,1.27,1.56,1.66,2.1-.55.31-1.15.63-1.81.93C51.32,17.4,50.86,17.6,50.42,17.76Z"/><path class="cls-1" d="M50.42,45.23c-.15.34-.37.81-.65,1.38a29.29,29.29,0,0,1-2.59,4.32,22.73,22.73,0,0,1-2.24,2.67c-1.4,1.44-2.53,2-2.45,2.17a13.17,13.17,0,0,0,3.6-1.88,29.22,29.22,0,0,0,5.85-5c.72-.82,1.27-1.55,1.66-2.09-.55-.32-1.15-.63-1.81-.94C51.32,45.59,50.86,45.4,50.42,45.23Z"/><path class="cls-1" d="M51,19.35c.26.71.57,1.61.86,2.67a32,32,0,0,1,.87,4.11,32.61,32.61,0,0,1,.36,4.47h5.34c0-.36,0-.85-.07-1.44a19.6,19.6,0,0,0-.44-2.74,27.58,27.58,0,0,0-1-3.82,22.89,22.89,0,0,0-2.38-4.91,11.36,11.36,0,0,1-1.58.94A10.85,10.85,0,0,1,51,19.35Z"/><path class="cls-1" d="M51,43.55c.26-.71.57-1.61.86-2.67a32,32,0,0,0,.87-4.11,32.47,32.47,0,0,0,.36-4.47h5.34c0,.36,0,.86-.07,1.44a19.6,19.6,0,0,1-.44,2.74,28.07,28.07,0,0,1-1,3.83,23.08,23.08,0,0,1-2.38,4.9A10.48,10.48,0,0,0,53,44.28,11,11,0,0,0,51,43.55Z"/><path class="cls-1" d="M10.35,16.14a23.37,23.37,0,0,1,1.58-2,27,27,0,0,1,2.74-2.67,29.45,29.45,0,0,1,4.19-3c-.44.45-1,1-1.59,1.73-.28.33-.71.84-1.23,1.52a30,30,0,0,0-1.73,2.6,27.54,27.54,0,0,0-1.58,3.1,6.89,6.89,0,0,1-1.59-.72A6,6,0,0,1,10.35,16.14Z"/><path class="cls-1" d="M10.35,46.87a23.37,23.37,0,0,0,1.58,2,27,27,0,0,0,2.74,2.67,28.67,28.67,0,0,0,4.19,3c-.44-.45-1-1-1.59-1.73C17,52.46,16.56,52,16,51.27a29.3,29.3,0,0,1-1.73-2.59,28.67,28.67,0,0,1-1.58-3.11,6.57,6.57,0,0,0-1.59.73A6,6,0,0,0,10.35,46.87Z"/><path class="cls-1" d="M12,19c-.13.36-.31.85-.5,1.45a31.3,31.3,0,0,0-.94,3.82c-.28,1.49-.41,2.66-.65,4.83-.06.57-.11,1-.14,1.38H5.58c0-.33,0-.78,0-1.3a17.93,17.93,0,0,1,.29-2.46,26.47,26.47,0,0,1,1.52-5,29,29,0,0,1,2-4Z"/><path class="cls-1" d="M12,43.84c-.13-.35-.31-.84-.5-1.44a31.87,31.87,0,0,1-.94-3.82c-.28-1.49-.41-2.67-.65-4.84-.06-.56-.11-1-.14-1.37H5.58c0,.33,0,.77,0,1.3a17.86,17.86,0,0,0,.29,2.45,26.38,26.38,0,0,0,1.52,5,29,29,0,0,0,2,4Z"/></svg>