<svg id="Layer_1" data-name="Layer 1" xmlns="http://www.w3.org/2000/svg" viewBox="0 0 64 64">
  <defs>
    <style>.cls-1{fill:#2ec4b6;}.cls-2{fill:#fff;}</style>
  </defs>
  <circle class="cls-1" cx="21.5" cy="41.01" r="5.03"/>
  <circle class="cls-1" cx="54.07" cy="41.01" r="5.03"/>
  <path class="cls-1" d="M10.25,32,9.44,39.4a1.66,1.66,0,0,0,.4,1.07,1.52,1.52,0,0,0,.81.4,21.69,21.69,0,0,0,4.55,0,8,8,0,0,1,.14-.94A6.75,6.75,0,0,1,16.81,37,6.83,6.83,0,0,1,21,34.57a6.29,6.29,0,0,1,4.69,1.08A5.57,5.57,0,0,1,27.8,39a5,5,0,0,1,0,1.74h20a6.33,6.33,0,0,1,.4-1.74,7,7,0,0,1,3.08-3.49,6.69,6.69,0,0,1,4.83-.8A5.8,5.8,0,0,1,60,37.52a5.47,5.47,0,0,1,.54,3.22,1.31,1.31,0,0,0,.67.27,1.75,1.75,0,0,0,1.07-.41,3.51,3.51,0,0,0,.8-.67c.1-1.51.2-2.75.27-3.61.09-1.06.18-2.08.27-3.49.18-2.84.09-3.2,0-3.48s-.26-.66-2.14-2.82-1.72-1.78-2.55-2.81c-1.14-1.42-1.42-2.07-2.41-2.55a4.47,4.47,0,0,0-1.88-.4c-2.58-.1-5.12-.05-6.7,0l.4-5.23A1.45,1.45,0,0,0,48,14.47a1.47,1.47,0,0,0-.94-.4c-1.47-.13-32.11,0-34.44,0a2,2,0,0,0-.81.67,1.94,1.94,0,0,0-.26,1.47h-5a1.09,1.09,0,0,0,0,1.88H16.81a1.27,1.27,0,0,1,.67.94,1.2,1.2,0,0,1-.67,1.2H2.61a1.19,1.19,0,0,0-.4.94,1.17,1.17,0,0,0,.4.81H14.94c.37,0,.8.54.8,1.07a1.18,1.18,0,0,1-.8,1.07H4.75a1,1,0,0,0,0,1.88H17.08a1.09,1.09,0,0,1,0,2H1a1.13,1.13,0,0,0-.67,1.2A1.17,1.17,0,0,0,1,30H15.47a1.22,1.22,0,0,1,0,2Z"/>
  <path class="cls-2" d="M49.31,22.45l-.54,5.89h11.8L56,23.12a4.36,4.36,0,0,0-.67-.41,4.14,4.14,0,0,0-.67-.26Z"/>
  <circle class="cls-2" cx="21.5" cy="41.01" r="2.61"/>
  <circle class="cls-2" cx="54.07" cy="41.01" r="2.61"/>
  <path class="cls-2" d="M21.27,23.08h4.55v1.55h-2.7V26h2.32v1.55H23.12v2.55H21.27Z"/>
  <path class="cls-2" d="M27,23.08h2.64c1.5,0,2.79.52,2.79,2.26s-1.29,2.38-2.79,2.38h-.79v2.34H27Zm2.51,3.18c.73,0,1.12-.32,1.12-.92s-.39-.8-1.12-.8h-.66v1.72Zm-.2,1L30.58,26l2.27,4H30.79Z"/>
  <path class="cls-2" d="M33.8,23.08h4.51v1.55H35.64v1.09h2.28v1.55H35.64v1.25h2.78v1.54H33.8Z"/>
  <path class="cls-2" d="M39.77,23.08h4.51v1.55H41.62v1.09h2.27v1.55H41.62v1.25h2.77v1.54H39.77Z"/>
</svg>
