<svg id="Layer_1" data-name="Layer 1" xmlns="http://www.w3.org/2000/svg" viewBox="0 0 64 64">
  <defs>
    <style>.cls-1{fill:#2ec4b6;}.cls-2{fill:#fff;}</style>
  </defs>
  <path class="cls-1" d="M6.89,12.91c1.35-.38,3.29-1,5.62-1.72A91.38,91.38,0,0,0,24.37,6.67a69.66,69.66,0,0,0,7.34-4.06c3.62,2.16,6.84,3.8,9.37,5A68,68,0,0,0,52.17,12c2.09.61,3.87,1,5.15,1.25A55.69,55.69,0,0,1,56.38,24,57.68,57.68,0,0,1,54,32.58,58.17,58.17,0,0,1,48,44.92a61.91,61.91,0,0,1-8.12,9.83A62.57,62.57,0,0,1,32.49,61a60.48,60.48,0,0,1-7.8-5.62A51.94,51.94,0,0,1,17,47.57,48.78,48.78,0,0,1,9.85,34.93,49.3,49.3,0,0,1,6.89,12.91Z"/>
  <path class="cls-2" d="M11.13,16.07c1.12-.32,2.75-.8,4.68-1.44a75.51,75.51,0,0,0,9.89-3.77,58.42,58.42,0,0,0,6.12-3.38c3,1.8,5.7,3.16,7.81,4.16a56.67,56.67,0,0,0,9.24,3.64c1.75.51,3.23.84,4.3,1a45.89,45.89,0,0,1-.78,9,48.62,48.62,0,0,1-2,7.16,49.16,49.16,0,0,1-5.07,10.28A52,52,0,0,1,38.59,51a52.67,52.67,0,0,1-6.12,5.2A50.59,50.59,0,0,1,26,51.47,43.7,43.7,0,0,1,19.59,45a40.87,40.87,0,0,1-6-10.54A41,41,0,0,1,11.13,16.07Z"/>
  <path class="cls-1" d="M12.88,17.44c1-.3,2.51-.73,4.28-1.31a70.09,70.09,0,0,0,9-3.44A54.24,54.24,0,0,0,31.77,9.6c2.75,1.64,5.19,2.89,7.12,3.8a53.49,53.49,0,0,0,8.43,3.32c1.6.46,3,.76,3.92,1a41,41,0,0,1-.71,8.2,42.43,42.43,0,0,1-1.78,6.53,45.07,45.07,0,0,1-4.63,9.38,46.87,46.87,0,0,1-6.18,7.49A49.31,49.31,0,0,1,32.36,54a46.24,46.24,0,0,1-5.94-4.28A40.45,40.45,0,0,1,20.6,43.8a36.84,36.84,0,0,1-7.72-26.36Z"/>
  <path class="cls-2" d="M23.32,28.3v2.62h4.27a1,1,0,0,1,.71.95,1,1,0,0,1-.71.95H23.44v1.54h4.27a1,1,0,0,1,0,1.78H23.43V38.4a4.23,4.23,0,0,0,.24.47,3.41,3.41,0,0,0,.95,1.07,2.44,2.44,0,0,0,1.19.36c1.06.07,6,.09,12.71,0a2.28,2.28,0,0,0,.71-.24,2.47,2.47,0,0,0,1.07-1.19,3.29,3.29,0,0,0,.24-.71v-2H36.26a1,1,0,0,1,0-1.78h4.28V32.81H36.26a1.07,1.07,0,0,1-.59-1.06,1.11,1.11,0,0,1,.59-.83h4.4V28.3a2.86,2.86,0,0,0-1.07-1.54,3.1,3.1,0,0,0-1.31-.48,4.24,4.24,0,0,0-1.19,0v-5a5.18,5.18,0,0,0-10.21,0v4.87a3.47,3.47,0,0,0-2.73.83A3,3,0,0,0,23.32,28.3Z"/>
  <path class="cls-1" d="M28.78,26.52h6.53V21.18a3.57,3.57,0,0,0-3.86-2.32,3.47,3.47,0,0,0-2.61,2.38Z"/>
</svg>
